<?xml version="1.0" encoding="utf-8"?>
<svg version="1.1" xmlns:xlink="http://www.w3.org/1999/xlink" width="32px" height="31px" xmlns="http://www.w3.org/2000/svg">
  <g transform="matrix(1 0 0 1 -36 -76 )">
    <path d="M 19.625 19.01171875  C 21.3108974358974 17.3785056089744  22.1538461538462 15.4130608974359  22.1538461538462 13.1153846153846  C 22.1538461538462 10.8177083333333  21.3108974358974 8.85226362179487  19.625 7.21905048076923  C 17.9391025641026 5.58583733974359  15.9102564102564 4.76923076923077  13.5384615384615 4.76923076923077  C 11.1666666666667 4.76923076923077  9.13782051282051 5.58583733974359  7.45192307692308 7.21905048076923  C 5.76602564102564 8.85226362179487  4.92307692307692 10.8177083333333  4.92307692307692 13.1153846153846  C 4.92307692307692 15.4130608974359  5.76602564102564 17.3785056089744  7.45192307692308 19.01171875  C 9.13782051282051 20.6449318910256  11.1666666666667 21.4615384615385  13.5384615384615 21.4615384615385  C 15.9102564102564 21.4615384615385  17.9391025641026 20.6449318910256  19.625 19.01171875  Z M 31.2884615384615 26.9387019230769  C 31.7628205128205 27.3982371794872  32 27.9571314102564  32 28.6153846153846  C 32 29.261217948718  31.7564102564103 29.8201121794872  31.2692307692308 30.2920673076923  C 30.7820512820513 30.7640224358974  30.2051282051282 31  29.5384615384615 31  C 28.8461538461538 31  28.2692307692308 30.7640224358974  27.8076923076923 30.2920673076923  L 21.2115384615385 23.9206730769231  C 18.9166666666667 25.4607371794872  16.3589743589744 26.2307692307692  13.5384615384615 26.2307692307692  C 11.7051282051282 26.2307692307692  9.95192307692308 25.8861177884615  8.27884615384615 25.1968149038462  C 6.60576923076923 24.5075120192308  5.16346153846154 23.5760216346154  3.95192307692308 22.40234375  C 2.74038461538462 21.2286658653846  1.77884615384615 19.8314302884615  1.06730769230769 18.2106370192308  C 0.355769230769231 16.58984375  0 14.8914262820513  0 13.1153846153846  C 0 11.3393429487179  0.355769230769231 9.64092548076923  1.06730769230769 8.02013221153846  C 1.77884615384615 6.39933894230769  2.74038461538462 5.00210336538462  3.95192307692308 3.82842548076923  C 5.16346153846154 2.65474759615385  6.60576923076923 1.72325721153846  8.27884615384615 1.03395432692308  C 9.95192307692308 0.344651442307692  11.7051282051282 0  13.5384615384615 0  C 15.3717948717949 0  17.125 0.344651442307692  18.7980769230769 1.03395432692308  C 20.4711538461538 1.72325721153846  21.9134615384615 2.65474759615385  23.125 3.82842548076923  C 24.3365384615385 5.00210336538462  25.2980769230769 6.39933894230769  26.0096153846154 8.02013221153846  C 26.7211538461538 9.64092548076923  27.0769230769231 11.3393429487179  27.0769230769231 13.1153846153846  C 27.0769230769231 15.8477564102564  26.2820512820513 18.3255208333333  24.6923076923077 20.5486778846154  L 31.2884615384615 26.9387019230769  Z " fill-rule="nonzero" fill="#d7d7d7" stroke="none" transform="matrix(1 0 0 1 36 76 )" />
  </g>
</svg>