<?xml version="1.0" encoding="utf-8"?>
<svg version="1.1" xmlns:xlink="http://www.w3.org/1999/xlink" width="52px" height="52px" xmlns="http://www.w3.org/2000/svg">
  <g transform="matrix(1 0 0 1 -1436 -403 )">
    <path d="M 1462 403  C 1476.56 403  1488 414.44  1488 429  C 1488 443.56  1476.56 455  1462 455  C 1447.44 455  1436 443.56  1436 429  C 1436 414.44  1447.44 403  1462 403  Z " fill-rule="nonzero" fill="#ffffff" stroke="none" />
    <path d="M 1462 403.5  C 1476.28 403.5  1487.5 414.72  1487.5 429  C 1487.5 443.28  1476.28 454.5  1462 454.5  C 1447.72 454.5  1436.5 443.28  1436.5 429  C 1436.5 414.72  1447.72 403.5  1462 403.5  Z " stroke-width="1" stroke="#797979" fill="none" />
  </g>
</svg>